{
  "version": "1.1.6",
  "modules": [
    {
      "id": 1,
      "plugin": "Core",
      "version": "1.1.6",
      "model": "AudioInterface",
      "params": [],
      "data": {
        "audio": {
          "driver": 6,
          "deviceName": "Auriculares (Realtek(R) Audio)",
          "offset": 0,
          "maxChannels": 8,
          "sampleRate": 44100,
          "blockSize": 256
        }
      },
      "pos": [
        67,
        0
      ]
    },
    {
      "id": 2,
      "plugin": "Fundamental",
      "version": "1.4.0",
      "model": "VCMixer",
      "params": [
        {
          "id": 0,
          "value": 1.0
        },
        {
          "id": 1,
          "value": 1.11455035
        },
        {
          "id": 2,
          "value": 0.376332462
        },
        {
          "id": 3,
          "value": 0.4666906
        },
        {
          "id": 4,
          "value": 0.588463664
        }
      ],
      "pos": [
        40,
        0
      ]
    },
    {
      "id": 3,
      "plugin": "Fundamental",
      "version": "1.4.0",
      "model": "VCO",
      "params": [
        {
          "id": 0,
          "value": 1.0
        },
        {
          "id": 1,
          "value": 1.0
        },
        {
          "id": 2,
          "value": 0.0
        },
        {
          "id": 3,
          "value": 0.0
        },
        {
          "id": 4,
          "value": 0.0
        },
        {
          "id": 5,
          "value": 0.5
        },
        {
          "id": 6,
          "value": 0.0
        }
      ],
      "leftModuleId": 5,
      "rightModuleId": 4,
      "pos": [
        8,
        0
      ]
    },
    {
      "id": 4,
      "plugin": "Fundamental",
      "version": "1.4.0",
      "model": "VCF",
      "params": [
        {
          "id": 0,
          "value": 0.0
        },
        {
          "id": 1,
          "value": 0.5
        },
        {
          "id": 2,
          "value": 0.234000027
        },
        {
          "id": 3,
          "value": 0.871000469
        },
        {
          "id": 4,
          "value": 0.0
        }
      ],
      "leftModuleId": 3,
      "rightModuleId": 6,
      "pos": [
        18,
        0
      ]
    },
    {
      "id": 5,
      "plugin": "Core",
      "version": "1.1.6",
      "model": "MIDIToCVInterface",
      "params": [],
      "rightModuleId": 3,
      "data": {
        "channels": 1,
        "polyMode": 0,
        "clockDivision": 24,
        "lastPitch": 8192,
        "lastMod": 0,
        "midi": {
          "driver": -12512,
          "deviceName": "Port 1",
          "channel": -1
        }
      },
      "pos": [
        0,
        0
      ]
    },
    {
      "id": 6,
      "plugin": "Fundamental",
      "version": "1.4.0",
      "model": "ADSR",
      "params": [
        {
          "id": 0,
          "value": 0.289499998
        },
        {
          "id": 1,
          "value": 0.304062784
        },
        {
          "id": 2,
          "value": 0.389205486
        },
        {
          "id": 3,
          "value": 0.215999544
        }
      ],
      "leftModuleId": 4,
      "pos": [
        26,
        0
      ]
    },
    {
      "id": 84,
      "plugin": "Fundamental",
      "version": "1.4.0",
      "model": "SEQ3",
      "params": [
        {
          "id": 0,
          "value": 2.84800053
        },
        {
          "id": 1,
          "value": 0.0
        },
        {
          "id": 2,
          "value": 0.0
        },
        {
          "id": 3,
          "value": 8.0
        },
        {
          "id": 4,
          "value": 0.0
        },
        {
          "id": 5,
          "value": 0.720000029
        },
        {
          "id": 6,
          "value": 0.0
        },
        {
          "id": 7,
          "value": 0.510001779
        },
        {
          "id": 8,
          "value": 0.49500072
        },
        {
          "id": 9,
          "value": 0.0
        },
        {
          "id": 10,
          "value": 0.344921291
        },
        {
          "id": 11,
          "value": 0.375001729
        },
        {
          "id": 12,
          "value": 0.0
        },
        {
          "id": 13,
          "value": 0.0
        },
        {
          "id": 14,
          "value": 0.0
        },
        {
          "id": 15,
          "value": 0.0
        },
        {
          "id": 16,
          "value": 0.0
        },
        {
          "id": 17,
          "value": 0.0
        },
        {
          "id": 18,
          "value": 0.0
        },
        {
          "id": 19,
          "value": 0.0
        },
        {
          "id": 20,
          "value": 0.0
        },
        {
          "id": 21,
          "value": 0.0
        },
        {
          "id": 22,
          "value": 0.0
        },
        {
          "id": 23,
          "value": 0.0
        },
        {
          "id": 24,
          "value": 0.0
        },
        {
          "id": 25,
          "value": 0.0
        },
        {
          "id": 26,
          "value": 0.0
        },
        {
          "id": 27,
          "value": 0.0
        },
        {
          "id": 28,
          "value": 0.0
        },
        {
          "id": 29,
          "value": 0.0
        },
        {
          "id": 30,
          "value": 0.0
        },
        {
          "id": 31,
          "value": 0.0
        },
        {
          "id": 32,
          "value": 0.0
        },
        {
          "id": 33,
          "value": 0.0
        },
        {
          "id": 34,
          "value": 0.0
        },
        {
          "id": 35,
          "value": 0.0
        }
      ],
      "rightModuleId": 96,
      "data": {
        "running": false,
        "gates": [
          1,
          1,
          0,
          1,
          1,
          0,
          1,
          0
        ]
      },
      "pos": [
        0,
        1
      ]
    },
    {
      "id": 95,
      "plugin": "ImpromptuModular",
      "version": "1.1.12",
      "model": "Clocked",
      "params": [
        {
          "id": 0,
          "value": 50.0
        },
        {
          "id": 1,
          "value": 2.0
        },
        {
          "id": 2,
          "value": 1.0
        },
        {
          "id": 3,
          "value": 9.0
        },
        {
          "id": 4,
          "value": 0.0
        },
        {
          "id": 5,
          "value": 0.0
        },
        {
          "id": 6,
          "value": 0.0
        },
        {
          "id": 7,
          "value": 0.0
        },
        {
          "id": 8,
          "value": 0.5
        },
        {
          "id": 9,
          "value": 0.5
        },
        {
          "id": 10,
          "value": 0.5
        },
        {
          "id": 11,
          "value": 0.5
        },
        {
          "id": 12,
          "value": 0.0
        },
        {
          "id": 13,
          "value": 0.0
        },
        {
          "id": 14,
          "value": 0.0
        },
        {
          "id": 15,
          "value": 0.0
        },
        {
          "id": 16,
          "value": 0.0
        },
        {
          "id": 17,
          "value": 0.0
        },
        {
          "id": 18,
          "value": 0.0
        },
        {
          "id": 19,
          "value": 0.0
        }
      ],
      "rightModuleId": 101,
      "data": {
        "panelTheme": 0,
        "running": true,
        "displayDelayNoteMode": true,
        "bpmDetectionMode": false,
        "resetOnStartStop": 0,
        "ppqn": 4,
        "resetClockOutputsHigh": true,
        "momentaryRunInput": true,
        "clockMaster": false
      },
      "pos": [
        0,
        2
      ]
    },
    {
      "id": 96,
      "plugin": "JW-Modules",
      "version": "1.0.30",
      "model": "Quantizer",
      "params": [
        {
          "id": 0,
          "value": 0.0
        },
        {
          "id": 1,
          "value": 11.0
        },
        {
          "id": 2,
          "value": -2.0
        }
      ],
      "leftModuleId": 84,
      "data": {},
      "pos": [
        22,
        1
      ]
    },
    {
      "id": 97,
      "plugin": "Fundamental",
      "version": "1.4.0",
      "model": "VCO",
      "params": [
        {
          "id": 0,
          "value": 1.0
        },
        {
          "id": 1,
          "value": 1.0
        },
        {
          "id": 2,
          "value": 0.0
        },
        {
          "id": 3,
          "value": 0.0
        },
        {
          "id": 4,
          "value": 0.0
        },
        {
          "id": 5,
          "value": 0.5
        },
        {
          "id": 6,
          "value": 0.0
        }
      ],
      "leftModuleId": 100,
      "rightModuleId": 98,
      "pos": [
        39,
        1
      ]
    },
    {
      "id": 98,
      "plugin": "Fundamental",
      "version": "1.4.0",
      "model": "VCF",
      "params": [
        {
          "id": 0,
          "value": 0.0
        },
        {
          "id": 1,
          "value": 0.5
        },
        {
          "id": 2,
          "value": 0.234000027
        },
        {
          "id": 3,
          "value": 0.871000469
        },
        {
          "id": 4,
          "value": 0.0
        }
      ],
      "leftModuleId": 97,
      "rightModuleId": 99,
      "pos": [
        49,
        1
      ]
    },
    {
      "id": 99,
      "plugin": "Fundamental",
      "version": "1.4.0",
      "model": "ADSR",
      "params": [
        {
          "id": 0,
          "value": 0.0389999896
        },
        {
          "id": 1,
          "value": 0.446562946
        },
        {
          "id": 2,
          "value": 0.560204625
        },
        {
          "id": 3,
          "value": 0.235499978
        }
      ],
      "leftModuleId": 98,
      "pos": [
        57,
        1
      ]
    },
    {
      "id": 100,
      "plugin": "JW-Modules",
      "version": "1.0.30",
      "model": "Quantizer",
      "params": [
        {
          "id": 0,
          "value": 0.0
        },
        {
          "id": 1,
          "value": 11.0
        },
        {
          "id": 2,
          "value": -1.0
        }
      ],
      "rightModuleId": 97,
      "data": {},
      "pos": [
        35,
        1
      ]
    },
    {
      "id": 101,
      "plugin": "Fundamental",
      "version": "1.4.0",
      "model": "SEQ3",
      "params": [
        {
          "id": 0,
          "value": 2.84800053
        },
        {
          "id": 1,
          "value": 0.0
        },
        {
          "id": 2,
          "value": 0.0
        },
        {
          "id": 3,
          "value": 8.0
        },
        {
          "id": 4,
          "value": 0.704999924
        },
        {
          "id": 5,
          "value": 1.12499976
        },
        {
          "id": 6,
          "value": 0.329999983
        },
        {
          "id": 7,
          "value": 1.83000159
        },
        {
          "id": 8,
          "value": 1.575001
        },
        {
          "id": 9,
          "value": 0.360000014
        },
        {
          "id": 10,
          "value": 1.04992127
        },
        {
          "id": 11,
          "value": 1.18500149
        },
        {
          "id": 12,
          "value": 0.0
        },
        {
          "id": 13,
          "value": 0.0
        },
        {
          "id": 14,
          "value": 0.0
        },
        {
          "id": 15,
          "value": 0.0
        },
        {
          "id": 16,
          "value": 0.0
        },
        {
          "id": 17,
          "value": 0.0
        },
        {
          "id": 18,
          "value": 0.0
        },
        {
          "id": 19,
          "value": 0.0
        },
        {
          "id": 20,
          "value": 0.0
        },
        {
          "id": 21,
          "value": 0.0
        },
        {
          "id": 22,
          "value": 0.0
        },
        {
          "id": 23,
          "value": 0.0
        },
        {
          "id": 24,
          "value": 0.0
        },
        {
          "id": 25,
          "value": 0.0
        },
        {
          "id": 26,
          "value": 0.0
        },
        {
          "id": 27,
          "value": 0.0
        },
        {
          "id": 28,
          "value": 0.0
        },
        {
          "id": 29,
          "value": 0.0
        },
        {
          "id": 30,
          "value": 0.0
        },
        {
          "id": 31,
          "value": 0.0
        },
        {
          "id": 32,
          "value": 0.0
        },
        {
          "id": 33,
          "value": 0.0
        },
        {
          "id": 34,
          "value": 0.0
        },
        {
          "id": 35,
          "value": 0.0
        }
      ],
      "leftModuleId": 95,
      "rightModuleId": 102,
      "data": {
        "running": false,
        "gates": [
          1,
          0,
          0,
          0,
          1,
          0,
          0,
          1
        ]
      },
      "pos": [
        20,
        2
      ]
    },
    {
      "id": 102,
      "plugin": "Fundamental",
      "version": "1.4.0",
      "model": "SEQ3",
      "params": [
        {
          "id": 0,
          "value": 2.84800053
        },
        {
          "id": 1,
          "value": 0.0
        },
        {
          "id": 2,
          "value": 0.0
        },
        {
          "id": 3,
          "value": 8.0
        },
        {
          "id": 4,
          "value": 2.23499942
        },
        {
          "id": 5,
          "value": 3.22499824
        },
        {
          "id": 6,
          "value": 2.00999951
        },
        {
          "id": 7,
          "value": 3.52500176
        },
        {
          "id": 8,
          "value": 3.22500205
        },
        {
          "id": 9,
          "value": 1.94999969
        },
        {
          "id": 10,
          "value": 1.85992086
        },
        {
          "id": 11,
          "value": 2.41500187
        },
        {
          "id": 12,
          "value": 0.0
        },
        {
          "id": 13,
          "value": 0.0
        },
        {
          "id": 14,
          "value": 0.0
        },
        {
          "id": 15,
          "value": 0.0
        },
        {
          "id": 16,
          "value": 0.0
        },
        {
          "id": 17,
          "value": 0.0
        },
        {
          "id": 18,
          "value": 0.0
        },
        {
          "id": 19,
          "value": 0.0
        },
        {
          "id": 20,
          "value": 0.0
        },
        {
          "id": 21,
          "value": 0.0
        },
        {
          "id": 22,
          "value": 0.0
        },
        {
          "id": 23,
          "value": 0.0
        },
        {
          "id": 24,
          "value": 0.0
        },
        {
          "id": 25,
          "value": 0.0
        },
        {
          "id": 26,
          "value": 0.0
        },
        {
          "id": 27,
          "value": 0.0
        },
        {
          "id": 28,
          "value": 0.0
        },
        {
          "id": 29,
          "value": 0.0
        },
        {
          "id": 30,
          "value": 0.0
        },
        {
          "id": 31,
          "value": 0.0
        },
        {
          "id": 32,
          "value": 0.0
        },
        {
          "id": 33,
          "value": 0.0
        },
        {
          "id": 34,
          "value": 0.0
        },
        {
          "id": 35,
          "value": 0.0
        }
      ],
      "leftModuleId": 101,
      "rightModuleId": 103,
      "data": {
        "running": false,
        "gates": [
          1,
          1,
          1,
          0,
          0,
          1,
          1,
          0
        ]
      },
      "pos": [
        42,
        2
      ]
    },
    {
      "id": 103,
      "plugin": "JW-Modules",
      "version": "1.0.30",
      "model": "Quantizer",
      "params": [
        {
          "id": 0,
          "value": 0.0
        },
        {
          "id": 1,
          "value": 11.0
        },
        {
          "id": 2,
          "value": 0.0
        }
      ],
      "leftModuleId": 102,
      "rightModuleId": 104,
      "data": {},
      "pos": [
        64,
        2
      ]
    },
    {
      "id": 104,
      "plugin": "Fundamental",
      "version": "1.4.0",
      "model": "VCO",
      "params": [
        {
          "id": 0,
          "value": 1.0
        },
        {
          "id": 1,
          "value": 1.0
        },
        {
          "id": 2,
          "value": 0.0
        },
        {
          "id": 3,
          "value": 0.0
        },
        {
          "id": 4,
          "value": 0.0
        },
        {
          "id": 5,
          "value": 0.5
        },
        {
          "id": 6,
          "value": 0.0
        }
      ],
      "leftModuleId": 103,
      "rightModuleId": 105,
      "pos": [
        68,
        2
      ]
    },
    {
      "id": 105,
      "plugin": "Fundamental",
      "version": "1.4.0",
      "model": "VCF",
      "params": [
        {
          "id": 0,
          "value": 0.0
        },
        {
          "id": 1,
          "value": 0.5
        },
        {
          "id": 2,
          "value": 0.234000027
        },
        {
          "id": 3,
          "value": 0.871000469
        },
        {
          "id": 4,
          "value": 0.0
        }
      ],
      "leftModuleId": 104,
      "rightModuleId": 106,
      "pos": [
        78,
        2
      ]
    },
    {
      "id": 106,
      "plugin": "Fundamental",
      "version": "1.4.0",
      "model": "ADSR",
      "params": [
        {
          "id": 0,
          "value": 0.0389999896
        },
        {
          "id": 1,
          "value": 0.520062864
        },
        {
          "id": 2,
          "value": 0.638203979
        },
        {
          "id": 3,
          "value": 0.142499998
        }
      ],
      "leftModuleId": 105,
      "pos": [
        86,
        2
      ]
    },
    {
      "id": 108,
      "plugin": "Fundamental",
      "version": "1.4.0",
      "model": "VCMixer",
      "params": [
        {
          "id": 0,
          "value": 1.0
        },
        {
          "id": 1,
          "value": 0.504873753
        },
        {
          "id": 2,
          "value": 0.439971805
        },
        {
          "id": 3,
          "value": 0.869741142
        },
        {
          "id": 4,
          "value": 0.835799575
        }
      ],
      "pos": [
        80,
        0
      ]
    },
    {
      "id": 109,
      "plugin": "Fundamental",
      "version": "1.4.0",
      "model": "VCMixer",
      "params": [
        {
          "id": 0,
          "value": 1.0
        },
        {
          "id": 1,
          "value": 0.635132074
        },
        {
          "id": 2,
          "value": 0.635133386
        },
        {
          "id": 3,
          "value": 0.898176551
        },
        {
          "id": 4,
          "value": 0.588463664
        }
      ],
      "pos": [
        54,
        0
      ]
    },
    {
      "id": 110,
      "plugin": "Fundamental",
      "version": "1.4.0",
      "model": "VCMixer",
      "params": [
        {
          "id": 0,
          "value": 1.87600017
        },
        {
          "id": 1,
          "value": 1.14425027
        },
        {
          "id": 2,
          "value": 1.17819154
        },
        {
          "id": 3,
          "value": 0.524824083
        },
        {
          "id": 4,
          "value": 0.554522634
        }
      ],
      "pos": [
        93,
        0
      ]
    }
  ],
  "cables": [
    {
      "id": 248,
      "outputModuleId": 3,
      "outputId": 2,
      "inputModuleId": 4,
      "inputId": 3,
      "color": "#0c8e15"
    },
    {
      "id": 253,
      "outputModuleId": 6,
      "outputId": 0,
      "inputModuleId": 2,
      "inputId": 5,
      "color": "#0c8e15"
    },
    {
      "id": 254,
      "outputModuleId": 4,
      "outputId": 0,
      "inputModuleId": 2,
      "inputId": 1,
      "color": "#0986ad"
    },
    {
      "id": 286,
      "outputModuleId": 95,
      "outputId": 1,
      "inputModuleId": 84,
      "inputId": 1,
      "color": "#c91847"
    },
    {
      "id": 260,
      "outputModuleId": 84,
      "outputId": 1,
      "inputModuleId": 96,
      "inputId": 2,
      "color": "#c91847"
    },
    {
      "id": 290,
      "outputModuleId": 100,
      "outputId": 0,
      "inputModuleId": 97,
      "inputId": 0,
      "color": "#c9b70e"
    },
    {
      "id": 291,
      "outputModuleId": 97,
      "outputId": 2,
      "inputModuleId": 98,
      "inputId": 3,
      "color": "#0c8e15"
    },
    {
      "id": 292,
      "outputModuleId": 98,
      "outputId": 0,
      "inputModuleId": 2,
      "inputId": 2,
      "color": "#c91847"
    },
    {
      "id": 293,
      "outputModuleId": 99,
      "outputId": 0,
      "inputModuleId": 2,
      "inputId": 6,
      "color": "#0986ad"
    },
    {
      "id": 294,
      "outputModuleId": 95,
      "outputId": 2,
      "inputModuleId": 101,
      "inputId": 1,
      "color": "#c9b70e"
    },
    {
      "id": 295,
      "outputModuleId": 101,
      "outputId": 0,
      "inputModuleId": 99,
      "inputId": 4,
      "color": "#0c8e15"
    },
    {
      "id": 296,
      "outputModuleId": 101,
      "outputId": 1,
      "inputModuleId": 100,
      "inputId": 2,
      "color": "#c91847"
    },
    {
      "id": 297,
      "outputModuleId": 99,
      "outputId": 0,
      "inputModuleId": 98,
      "inputId": 0,
      "color": "#0986ad"
    },
    {
      "id": 299,
      "outputModuleId": 95,
      "outputId": 3,
      "inputModuleId": 102,
      "inputId": 1,
      "color": "#0c8e15"
    },
    {
      "id": 300,
      "outputModuleId": 102,
      "outputId": 0,
      "inputModuleId": 106,
      "inputId": 4,
      "color": "#c91847"
    },
    {
      "id": 303,
      "outputModuleId": 102,
      "outputId": 1,
      "inputModuleId": 103,
      "inputId": 2,
      "color": "#0c8e15"
    },
    {
      "id": 304,
      "outputModuleId": 104,
      "outputId": 1,
      "inputModuleId": 105,
      "inputId": 3,
      "color": "#c91847"
    },
    {
      "id": 305,
      "outputModuleId": 106,
      "outputId": 0,
      "inputModuleId": 105,
      "inputId": 0,
      "color": "#0986ad"
    },
    {
      "id": 307,
      "outputModuleId": 106,
      "outputId": 0,
      "inputModuleId": 2,
      "inputId": 7,
      "color": "#c91847"
    },
    {
      "id": 312,
      "outputModuleId": 105,
      "outputId": 0,
      "inputModuleId": 2,
      "inputId": 3,
      "color": "#0c8e15"
    },
    {
      "id": 319,
      "outputModuleId": 2,
      "outputId": 0,
      "inputModuleId": 109,
      "inputId": 1,
      "color": "#c91847"
    },
    {
      "id": 320,
      "outputModuleId": 2,
      "outputId": 0,
      "inputModuleId": 109,
      "inputId": 2,
      "color": "#0986ad"
    },
    {
      "id": 315,
      "outputModuleId": 108,
      "outputId": 0,
      "inputModuleId": 110,
      "inputId": 2,
      "color": "#0c8e15"
    },
    {
      "id": 314,
      "outputModuleId": 108,
      "outputId": 0,
      "inputModuleId": 110,
      "inputId": 1,
      "color": "#c9b70e"
    },
    {
      "id": 321,
      "outputModuleId": 2,
      "outputId": 0,
      "inputModuleId": 110,
      "inputId": 3,
      "color": "#c9b70e"
    },
    {
      "id": 322,
      "outputModuleId": 2,
      "outputId": 0,
      "inputModuleId": 110,
      "inputId": 4,
      "color": "#0c8e15"
    },
    {
      "id": 323,
      "outputModuleId": 110,
      "outputId": 0,
      "inputModuleId": 1,
      "inputId": 0,
      "color": "#c91847"
    },
    {
      "id": 324,
      "outputModuleId": 110,
      "outputId": 0,
      "inputModuleId": 1,
      "inputId": 1,
      "color": "#0986ad"
    },
    {
      "id": 325,
      "outputModuleId": 5,
      "outputId": 0,
      "inputModuleId": 3,
      "inputId": 0,
      "color": "#0c8e15"
    },
    {
      "id": 326,
      "outputModuleId": 5,
      "outputId": 2,
      "inputModuleId": 4,
      "inputId": 0,
      "color": "#c9b70e"
    },
    {
      "id": 327,
      "outputModuleId": 5,
      "outputId": 1,
      "inputModuleId": 6,
      "inputId": 4,
      "color": "#0c8e15"
    },
    {
      "id": 336,
      "outputModuleId": 103,
      "outputId": 0,
      "inputModuleId": 104,
      "inputId": 0,
      "color": "#c9b70e"
    }
  ]
}